<?xml version="1.0" encoding="UTF-8"?>
<svg xmlns="http://www.w3.org/2000/svg" xmlns:xlink="http://www.w3.org/1999/xlink" width="3001" height="3001" viewBox="0 0 3001 3001">
<defs>
<clipPath id="clip-0">
<path clip-rule="nonzero" d="M 0.5 0.5 L 3000.5 0.5 L 3000.5 3000.5 L 0.5 3000.5 Z M 0.5 0.5 "/>
</clipPath>
<radialGradient id="radial-pattern-0" gradientUnits="userSpaceOnUse" cx="0" cy="0" fx="0" fy="0" r="1500" gradientTransform="matrix(1, 0, 0, 1, 1500.5, 1500.5)">
<stop offset="0" stop-color="rgb(99.905396%, 99.90387%, 99.90387%)" stop-opacity="1"/>
<stop offset="0.015625" stop-color="rgb(99.64447%, 99.638367%, 99.639893%)" stop-opacity="1"/>
<stop offset="0.0429688" stop-color="rgb(99.311829%, 99.299622%, 99.302673%)" stop-opacity="1"/>
<stop offset="0.0703125" stop-color="rgb(98.979187%, 98.960876%, 98.965454%)" stop-opacity="1"/>
<stop offset="0.0976562" stop-color="rgb(98.64502%, 98.620605%, 98.626709%)" stop-opacity="1"/>
<stop offset="0.125" stop-color="rgb(98.312378%, 98.28186%, 98.28949%)" stop-opacity="1"/>
<stop offset="0.152344" stop-color="rgb(98.002625%, 97.966003%, 97.975159%)" stop-opacity="1"/>
<stop offset="0.175781" stop-color="rgb(97.717285%, 97.676086%, 97.686768%)" stop-opacity="1"/>
<stop offset="0.199219" stop-color="rgb(97.43042%, 97.384644%, 97.395325%)" stop-opacity="1"/>
<stop offset="0.222656" stop-color="rgb(97.146606%, 97.094727%, 97.106934%)" stop-opacity="1"/>
<stop offset="0.246094" stop-color="rgb(96.862793%, 96.80481%, 96.820068%)" stop-opacity="1"/>
<stop offset="0.269531" stop-color="rgb(96.600342%, 96.537781%, 96.554565%)" stop-opacity="1"/>
<stop offset="0.289062" stop-color="rgb(96.362305%, 96.295166%, 96.311951%)" stop-opacity="1"/>
<stop offset="0.308594" stop-color="rgb(96.122742%, 96.052551%, 96.069336%)" stop-opacity="1"/>
<stop offset="0.328125" stop-color="rgb(95.88623%, 95.811462%, 95.831299%)" stop-opacity="1"/>
<stop offset="0.347656" stop-color="rgb(95.648193%, 95.568848%, 95.588684%)" stop-opacity="1"/>
<stop offset="0.367188" stop-color="rgb(95.40863%, 95.326233%, 95.346069%)" stop-opacity="1"/>
<stop offset="0.386719" stop-color="rgb(95.196533%, 95.109558%, 95.13092%)" stop-opacity="1"/>
<stop offset="0.402344" stop-color="rgb(95.005798%, 94.915771%, 94.93866%)" stop-opacity="1"/>
<stop offset="0.417969" stop-color="rgb(94.813538%, 94.718933%, 94.743347%)" stop-opacity="1"/>
<stop offset="0.433594" stop-color="rgb(94.624329%, 94.526672%, 94.551086%)" stop-opacity="1"/>
<stop offset="0.449219" stop-color="rgb(94.43512%, 94.334412%, 94.358826%)" stop-opacity="1"/>
<stop offset="0.464844" stop-color="rgb(94.245911%, 94.140625%, 94.166565%)" stop-opacity="1"/>
<stop offset="0.480469" stop-color="rgb(94.05365%, 93.945312%, 93.971252%)" stop-opacity="1"/>
<stop offset="0.496094" stop-color="rgb(93.864441%, 93.753052%, 93.780518%)" stop-opacity="1"/>
<stop offset="0.511719" stop-color="rgb(93.603516%, 93.486023%, 93.515015%)" stop-opacity="1"/>
<stop offset="0.539062" stop-color="rgb(93.269348%, 93.145752%, 93.17627%)" stop-opacity="1"/>
<stop offset="0.566406" stop-color="rgb(92.961121%, 92.832947%, 92.86499%)" stop-opacity="1"/>
<stop offset="0.589844" stop-color="rgb(92.674255%, 92.539978%, 92.573547%)" stop-opacity="1"/>
<stop offset="0.613281" stop-color="rgb(92.388916%, 92.250061%, 92.285156%)" stop-opacity="1"/>
<stop offset="0.636719" stop-color="rgb(92.127991%, 91.984558%, 92.019653%)" stop-opacity="1"/>
<stop offset="0.65625" stop-color="rgb(91.888428%, 91.741943%, 91.778564%)" stop-opacity="1"/>
<stop offset="0.675781" stop-color="rgb(91.651917%, 91.500854%, 91.537476%)" stop-opacity="1"/>
<stop offset="0.695312" stop-color="rgb(91.436768%, 91.281128%, 91.319275%)" stop-opacity="1"/>
<stop offset="0.710938" stop-color="rgb(91.246033%, 91.087341%, 91.127014%)" stop-opacity="1"/>
<stop offset="0.726562" stop-color="rgb(91.056824%, 90.895081%, 90.934753%)" stop-opacity="1"/>
<stop offset="0.742188" stop-color="rgb(90.867615%, 90.701294%, 90.742493%)" stop-opacity="1"/>
<stop offset="0.757812" stop-color="rgb(90.603638%, 90.432739%, 90.475464%)" stop-opacity="1"/>
<stop offset="0.785156" stop-color="rgb(90.296936%, 90.119934%, 90.164185%)" stop-opacity="1"/>
<stop offset="0.808594" stop-color="rgb(90.008545%, 89.826965%, 89.872742%)" stop-opacity="1"/>
<stop offset="0.832031" stop-color="rgb(89.749146%, 89.561462%, 89.608765%)" stop-opacity="1"/>
<stop offset="0.851562" stop-color="rgb(89.535522%, 89.344788%, 89.39209%)" stop-opacity="1"/>
<stop offset="0.867188" stop-color="rgb(89.343262%, 89.149475%, 89.196777%)" stop-opacity="1"/>
<stop offset="0.882812" stop-color="rgb(89.083862%, 88.885498%, 88.934326%)" stop-opacity="1"/>
<stop offset="0.910156" stop-color="rgb(88.798523%, 88.594055%, 88.644409%)" stop-opacity="1"/>
<stop offset="0.929688" stop-color="rgb(88.581848%, 88.374329%, 88.426208%)" stop-opacity="1"/>
<stop offset="0.945312" stop-color="rgb(88.320923%, 88.108826%, 88.162231%)" stop-opacity="1"/>
<stop offset="0.972656" stop-color="rgb(87.986755%, 87.768555%, 87.823486%)" stop-opacity="1"/>
<stop offset="1" stop-color="rgb(87.820435%, 87.599182%, 87.654114%)" stop-opacity="1"/>
</radialGradient>
</defs>
<g clip-path="url(#clip-0)">
<path fill-rule="nonzero" fill="url(#radial-pattern-0)" d="M 0.5 0.5 L 0.5 3000.5 L 3000.5 3000.5 L 3000.5 0.5 Z M 0.5 0.5 "/>
</g>
<path fill="none" stroke-width="10" stroke-linecap="butt" stroke-linejoin="miter" stroke="rgb(13.729858%, 12.159729%, 12.548828%)" stroke-opacity="1" stroke-miterlimit="10" d="M 30005 5 L 5 5 L 5 30005 L 30005 30005 Z M 30005 5 " transform="matrix(0.1, 0, 0, -0.1, 0, 3001)"/>
<path fill-rule="nonzero" fill="rgb(13.729858%, 12.159729%, 12.548828%)" fill-opacity="1" d="M 1025.808594 2304.429688 C 829.21875 2172.058594 716.472656 1971.699219 716.472656 1754.730469 C 716.472656 1599.128906 774.03125 1452.078125 882.929688 1329.480469 C 905.855469 1303.671875 903.519531 1264.171875 877.707031 1241.238281 C 851.902344 1218.320312 812.394531 1220.660156 789.476562 1246.46875 C 661.789062 1390.21875 591.472656 1570.71875 591.472656 1754.730469 C 591.472656 1883.910156 626.058594 2012.609375 691.496094 2126.929688 C 754.300781 2236.660156 845.765625 2333.898438 956.003906 2408.121094 C 966.707031 2415.320312 978.839844 2418.78125 990.851562 2418.78125 C 1010.949219 2418.78125 1030.679688 2409.101562 1042.75 2391.179688 C 1062.03125 2362.550781 1054.449219 2323.710938 1025.808594 2304.429688 "/>
<path fill-rule="nonzero" fill="rgb(13.729858%, 12.159729%, 12.548828%)" fill-opacity="1" d="M 1500.5 2625.5 C 969.253906 2625.5 537.003906 2234.878906 537.003906 1754.75 C 537.003906 1454.191406 706.378906 1188.691406 963.378906 1032.128906 C 950.316406 1052.761719 945.878906 1078.070312 952.003906 1103.320312 C 961.378906 1142.128906 993.191406 1169.691406 1032.941406 1173.511719 L 1297.808594 1198.941406 L 1426.441406 1371.191406 C 1443.808594 1394.441406 1471.5 1408.320312 1500.5 1408.320312 C 1529.5 1408.320312 1557.191406 1394.441406 1574.558594 1371.191406 L 1703.191406 1198.941406 L 1968.058594 1173.511719 C 2007.808594 1169.691406 2039.621094 1142.128906 2049 1103.320312 C 2055.121094 1078.070312 2050.691406 1052.761719 2037.621094 1032.128906 C 2294.621094 1188.691406 2464 1454.191406 2464 1754.75 C 2464 2234.878906 2031.75 2625.5 1500.5 2625.5 Z M 1242.441406 991.070312 C 1271.5 972.320312 1287.25 939.570312 1284.5 906.011719 C 1284.128906 900.699219 1283.25 895.378906 1281.878906 890.128906 L 1254.5 784.628906 L 1252.058594 775.261719 L 1269.808594 781.449219 L 1445.25 842.378906 C 1443.75 856.511719 1442.5 870.878906 1441.5 885.570312 C 1439.128906 918.511719 1438 952.949219 1438 988.941406 C 1438 1023.511719 1466 1051.449219 1500.5 1051.449219 C 1535 1051.449219 1563 1023.511719 1563 988.941406 C 1563 952.511719 1564.308594 918.261719 1567 886.011719 C 1568.378906 869.011719 1570.128906 852.570312 1572.191406 836.628906 L 1731.191406 781.449219 L 1748.941406 775.261719 L 1746.5 784.628906 L 1719.121094 890.128906 C 1717.75 895.378906 1716.871094 900.699219 1716.5 906.011719 C 1713.75 939.570312 1729.5 972.320312 1758.558594 991.070312 L 1862.621094 1058.070312 L 1676.871094 1075.878906 C 1651 1078.378906 1627.25 1091.761719 1611.691406 1112.570312 L 1500.5 1261.441406 L 1389.308594 1112.570312 C 1373.75 1091.761719 1350 1078.378906 1324.128906 1075.878906 L 1138.378906 1058.070312 Z M 1867.25 817.070312 L 1885.25 747.699219 C 1893.808594 714.628906 1883.558594 679.699219 1858.5 656.570312 C 1833.371094 633.378906 1797.75 626.011719 1765.5 637.199219 L 1604.691406 693.070312 C 1656.75 540.070312 1755.25 448.070312 1886.621094 366.011719 C 1915.871094 347.699219 1924.75 309.140625 1906.5 279.890625 C 1888.191406 250.640625 1849.621094 241.699219 1820.371094 260.011719 C 1624.808594 382.261719 1514.191406 520.878906 1466.441406 717.378906 L 1235.5 637.199219 C 1203.25 625.949219 1167.628906 633.378906 1142.5 656.570312 C 1117.441406 679.699219 1107.191406 714.628906 1115.75 747.699219 L 1133.75 817.070312 C 713.441406 955.070312 412.003906 1323.320312 412.003906 1754.75 C 412.003906 2303.808594 900.316406 2750.5 1500.5 2750.5 C 2100.691406 2750.5 2588.988281 2303.808594 2588.988281 1754.75 C 2588.988281 1323.320312 2287.558594 955.070312 1867.25 817.070312 "/>
</svg>
